<svg width="170" height="32" viewBox="0 0 170 32" fill="none" xmlns="http://www.w3.org/2000/svg">
<path d="M6.26617 24.5H0.790647L9.13374 0.332166H15.7185L24.0498 24.5H18.5743L12.5205 5.85489H12.3317L6.26617 24.5ZM5.92395 15.0004H18.8575V18.9891H5.92395V15.0004ZM26.8643 31.2972V6.37412H31.8206V9.41871H32.0448C32.2651 8.93094 32.5837 8.43531 33.0007 7.93182C33.4255 7.42045 33.9762 6.99563 34.6528 6.65734C35.3372 6.31119 36.1868 6.13811 37.2017 6.13811C38.5234 6.13811 39.7428 6.48427 40.8599 7.17657C41.9771 7.86101 42.87 8.89554 43.5387 10.2802C44.2074 11.6569 44.5417 13.3837 44.5417 15.4607C44.5417 17.4825 44.2153 19.1897 43.5623 20.5822C42.9172 21.9668 42.0361 23.017 40.9189 23.733C39.8097 24.441 38.5667 24.795 37.1899 24.795C36.2144 24.795 35.3844 24.6337 34.7 24.3112C34.0234 23.9886 33.4688 23.5835 33.0361 23.0957C32.6034 22.6001 32.2729 22.1005 32.0448 21.597H31.8914V31.2972H26.8643ZM31.7852 15.4371C31.7852 16.5149 31.9347 17.455 32.2336 18.2574C32.5326 19.0599 32.9653 19.6853 33.5317 20.1337C34.0981 20.5743 34.7865 20.7946 35.5968 20.7946C36.415 20.7946 37.1073 20.5704 37.6737 20.1219C38.2402 19.6656 38.6689 19.0363 38.96 18.2338C39.259 17.4235 39.4084 16.4913 39.4084 15.4371C39.4084 14.3907 39.2629 13.4703 38.9718 12.6757C38.6807 11.8811 38.252 11.2596 37.6855 10.8112C37.1191 10.3628 36.4229 10.1385 35.5968 10.1385C34.7786 10.1385 34.0863 10.3549 33.5199 10.7876C32.9613 11.2203 32.5326 11.8339 32.2336 12.6285C31.9347 13.4231 31.7852 14.3593 31.7852 15.4371ZM56.0828 24.854C54.2498 24.854 52.6646 24.4646 51.3271 23.6858C49.9976 22.899 48.9709 21.8055 48.2472 20.4052C47.5234 18.9969 47.1615 17.3645 47.1615 15.5079C47.1615 13.6355 47.5234 11.9991 48.2472 10.5988C48.9709 9.19056 49.9976 8.09703 51.3271 7.31818C52.6646 6.53147 54.2498 6.13811 56.0828 6.13811C57.9159 6.13811 59.4972 6.53147 60.8267 7.31818C62.1641 8.09703 63.1947 9.19056 63.9185 10.5988C64.6423 11.9991 65.0042 13.6355 65.0042 15.5079C65.0042 17.3645 64.6423 18.9969 63.9185 20.4052C63.1947 21.8055 62.1641 22.899 60.8267 23.6858C59.4972 24.4646 57.9159 24.854 56.0828 24.854ZM56.1064 20.9598C56.9403 20.9598 57.6366 20.7238 58.1952 20.2517C58.7537 19.7719 59.1746 19.1189 59.4578 18.2928C59.7489 17.4668 59.8945 16.5267 59.8945 15.4725C59.8945 14.4183 59.7489 13.4781 59.4578 12.6521C59.1746 11.826 58.7537 11.1731 58.1952 10.6932C57.6366 10.2133 56.9403 9.97334 56.1064 9.97334C55.2646 9.97334 54.5566 10.2133 53.9823 10.6932C53.4159 11.1731 52.9871 11.826 52.696 12.6521C52.4128 13.4781 52.2712 14.4183 52.2712 15.4725C52.2712 16.5267 52.4128 17.4668 52.696 18.2928C52.9871 19.1189 53.4159 19.7719 53.9823 20.2517C54.5566 20.7238 55.2646 20.9598 56.1064 20.9598ZM73.3 0.332166V24.5H68.2729V0.332166H73.3ZM82.3541 0.332166V24.5H77.327V0.332166H82.3541ZM94.5708 24.854C92.7378 24.854 91.1525 24.4646 89.8151 23.6858C88.4856 22.899 87.4589 21.8055 86.7351 20.4052C86.0114 18.9969 85.6495 17.3645 85.6495 15.5079C85.6495 13.6355 86.0114 11.9991 86.7351 10.5988C87.4589 9.19056 88.4856 8.09703 89.8151 7.31818C91.1525 6.53147 92.7378 6.13811 94.5708 6.13811C96.4038 6.13811 97.9851 6.53147 99.3147 7.31818C100.652 8.09703 101.683 9.19056 102.406 10.5988C103.13 11.9991 103.492 13.6355 103.492 15.5079C103.492 17.3645 103.13 18.9969 102.406 20.4052C101.683 21.8055 100.652 22.899 99.3147 23.6858C97.9851 24.4646 96.4038 24.854 94.5708 24.854ZM94.5944 20.9598C95.4283 20.9598 96.1246 20.7238 96.6831 20.2517C97.2417 19.7719 97.6626 19.1189 97.9458 18.2928C98.2369 17.4668 98.3824 16.5267 98.3824 15.4725C98.3824 14.4183 98.2369 13.4781 97.9458 12.6521C97.6626 11.826 97.2417 11.1731 96.6831 10.6932C96.1246 10.2133 95.4283 9.97334 94.5944 9.97334C93.7526 9.97334 93.0446 10.2133 92.4703 10.6932C91.9038 11.1731 91.4751 11.826 91.184 12.6521C90.9008 13.4781 90.7592 14.4183 90.7592 15.4725C90.7592 16.5267 90.9008 17.4668 91.184 18.2928C91.4751 19.1189 91.9038 19.7719 92.4703 20.2517C93.0446 20.7238 93.7526 20.9598 94.5944 20.9598Z" fill="url(#paint0_linear_19_383)"/>
<path d="M127.07 0.332166V24.5H122.656L112.142 9.2889H111.965V24.5H106.855V0.332166H111.34L121.771 15.5315H121.984V0.332166H127.07ZM131.292 24.5V0.332166H147.293V4.54502H136.401V10.3038H146.231V14.5166H136.401V24.5H131.292ZM149.81 4.54502V0.332166H169.659V4.54502H162.26V24.5H157.209V4.54502H149.81Z" fill="#1C51FE"/>
<defs>
<linearGradient id="paint0_linear_19_383" x1="4.60385" y1="-34.7131" x2="98.4124" y2="47.2028" gradientUnits="userSpaceOnUse">
<stop stop-color="#B235FF"/>
<stop offset="1" stop-color="#001447"/>
</linearGradient>
</defs>
</svg>
