<svg width="240" height="182" viewBox="0 0 240 182" fill="none" xmlns="http://www.w3.org/2000/svg">
<g opacity="0.3" filter="url(#filter0_f_17_409)">
<path d="M94.2818 -22.5242C95.7975 -24.0399 98.0068 -24.6319 100.077 -24.0771L184.182 -1.54125C186.253 -0.986452 187.87 0.630835 188.425 2.70139L210.961 86.8063C211.516 88.8768 210.924 91.0861 209.408 92.6018L147.839 154.171C146.323 155.687 144.114 156.279 142.043 155.724L57.9383 133.188C55.8678 132.633 54.2505 131.016 53.6957 128.945L31.1598 44.8404C30.605 42.7699 31.197 40.5606 32.7127 39.0449L94.2818 -22.5242Z" fill="#6B3D0F"/>
</g>
<g opacity="0.4" filter="url(#filter1_f_17_409)">
<path d="M95.5759 -17.6946C97.0916 -19.2104 99.3009 -19.8023 101.371 -19.2475L186.442 3.54713C188.513 4.10193 190.13 5.71922 190.685 7.78977L213.48 92.8606C214.034 94.9311 213.442 97.1404 211.927 98.6561L149.65 160.932C148.135 162.448 145.925 163.04 143.855 162.485L58.7841 139.691C56.7136 139.136 55.0963 137.518 54.5415 135.448L31.7468 50.3771C31.192 48.3066 31.784 46.0973 33.2997 44.5816L95.5759 -17.6946Z" fill="#6B3D0F"/>
</g>
<path d="M92.2112 -30.2518C93.727 -31.7676 95.9362 -32.3595 98.0068 -31.8047L185.975 -8.23361C188.046 -7.6788 189.663 -6.06152 190.218 -3.99097L213.789 83.9776C214.344 86.0482 213.752 88.2574 212.236 89.7732L147.839 154.171C146.323 155.686 144.114 156.278 142.043 155.724L54.0746 132.152C52.004 131.598 50.3868 129.98 49.832 127.91L26.2608 39.9412C25.706 37.8707 26.298 35.6614 27.8137 34.1457L92.2112 -30.2518Z" fill="url(#paint0_linear_17_409)"/>
<g clip-path="url(#clip0_17_409)">
<path d="M148.871 44.7907C147.769 35.1046 139.337 31.9983 128.747 31.2567L128.512 17.7987L120.32 17.9429L120.55 31.0463C118.396 31.0837 116.196 31.1648 114.009 31.2466L113.78 18.0562L105.593 18.199L105.825 31.6533C104.052 31.7206 102.311 31.7844 100.613 31.8148L100.611 31.7727L89.3126 31.9658L89.4675 40.7151C89.4675 40.7151 95.5148 40.4945 95.4163 40.607C98.7339 40.5499 99.8479 42.4578 100.192 44.1144L100.46 59.4461C100.689 59.4431 100.987 59.4474 101.327 59.4884C101.054 59.4934 100.762 59.497 100.461 59.5051L100.834 80.9833C100.707 82.0299 100.122 83.7062 97.8041 83.7504C97.9109 83.8413 91.8495 83.853 91.8495 83.853L90.3922 93.6649L101.053 93.4784C103.037 93.4465 104.99 93.4461 106.907 93.4241L107.148 107.035L115.331 106.894L115.095 93.426C117.343 93.4334 119.517 93.4132 121.641 93.3744L121.871 106.78L130.063 106.635L129.828 93.0481C143.587 92.0176 153.165 88.3802 154.136 75.4255C154.92 64.9947 149.941 60.4338 142.091 58.6929C146.798 56.1912 149.69 51.878 148.871 44.7907ZM137.919 74.095C138.1 84.2668 120.664 83.4141 115.112 83.5162L114.799 65.4817C120.352 65.3865 137.734 63.4854 137.919 74.095ZM133.664 48.7174C133.823 57.9715 119.279 57.1454 114.655 57.2263L114.37 40.8704C118.994 40.7895 133.494 39.0658 133.664 48.7174Z" fill="white"/>
</g>
<defs>
<filter id="filter0_f_17_409" x="24.9552" y="-30.2817" width="192.21" height="192.21" filterUnits="userSpaceOnUse" color-interpolation-filters="sRGB">
<feFlood flood-opacity="0" result="BackgroundImageFix"/>
<feBlend mode="normal" in="SourceGraphic" in2="BackgroundImageFix" result="shape"/>
<feGaussianBlur stdDeviation="3" result="effect1_foregroundBlur_17_409"/>
</filter>
<filter id="filter1_f_17_409" x="16.5422" y="-34.4521" width="212.142" height="212.142" filterUnits="userSpaceOnUse" color-interpolation-filters="sRGB">
<feFlood flood-opacity="0" result="BackgroundImageFix"/>
<feBlend mode="normal" in="SourceGraphic" in2="BackgroundImageFix" result="shape"/>
<feGaussianBlur stdDeviation="7.5" result="effect1_foregroundBlur_17_409"/>
</filter>
<linearGradient id="paint0_linear_17_409" x1="94.901" y1="-31.8047" x2="145.149" y2="155.724" gradientUnits="userSpaceOnUse">
<stop stop-color="#F4BA45"/>
<stop offset="1" stop-color="#F19C3B"/>
</linearGradient>
<clipPath id="clip0_17_409">
<rect width="97.8735" height="97.8735" fill="white" transform="translate(59.9351 27.2666) rotate(-15)"/>
</clipPath>
</defs>
</svg>
