<svg width="79" height="18" viewBox="0 0 79 18" fill="none" xmlns="http://www.w3.org/2000/svg">
<path fill-rule="evenodd" clip-rule="evenodd" d="M63.7369 5.7478C64.0345 6.26137 64.1319 6.84568 64.1641 7.50257L64.2064 8.37813V14.5006L64.2495 15.377C64.3359 16.8084 65.3915 17.8668 66.8339 17.9568L67.7058 18V8.37813L67.749 7.50257C67.7848 6.85303 67.8813 6.25769 68.1835 5.74045C68.4915 5.20991 68.9337 4.76974 69.4656 4.46413C69.9975 4.15852 70.6005 3.99823 71.2139 3.99934C71.8274 4.00046 72.4298 4.16295 72.9606 4.47049C73.4914 4.77804 73.9319 5.21982 74.238 5.75147C74.5356 6.26504 74.6284 6.86038 74.6643 7.50257L74.7075 8.37537V14.5006L74.7506 15.377C74.8407 16.8158 75.888 17.8741 77.335 17.9568L78.2069 18V7.50257C78.2069 5.64634 77.4697 3.86609 76.1574 2.55328C74.8451 1.24047 73.0652 0.502571 71.2089 0.50184C70.2154 0.500792 69.2331 0.711775 68.3277 1.12069C67.4222 1.52961 66.6145 2.12704 65.9584 2.87309C65.302 2.12734 64.4942 1.53005 63.5888 1.12101C62.6834 0.71197 61.7013 0.500579 60.7078 0.500921C59.2544 0.500921 57.9057 0.941912 56.7885 1.70354C56.1068 0.942831 54.5817 0.500921 53.7062 0.500921V18L54.5817 17.9568C56.0462 17.8604 57.1046 16.8305 57.1615 15.377L57.2084 14.5006V8.37813L57.2516 7.50257C57.2883 6.84201 57.3802 6.26137 57.6788 5.74412C57.987 5.21392 58.429 4.77385 58.9605 4.46787C59.492 4.16188 60.0945 4.00068 60.7078 4.00037C61.3216 4.0005 61.9245 4.16202 62.4562 4.46872C62.9878 4.77543 63.4295 5.21653 63.7369 5.7478V5.7478ZM3.83282 17.9577L4.70837 18H17.8325L17.7893 17.1272C17.6708 15.6885 16.6519 14.6374 15.2086 14.5437L14.333 14.5006H6.45948L16.9569 3.99945L16.9137 3.12757C16.8457 1.67414 15.7837 0.624031 14.333 0.544101L13.4575 0.504596L0.333374 0.500921L0.376554 1.37647C0.491396 2.80142 1.52497 3.8745 2.95635 3.95719L3.83282 4.00037H11.7064L1.20893 14.5015L1.25211 15.377C1.33847 16.8194 2.37939 17.864 3.83282 17.9568V17.9577ZM50.271 3.06234C51.0837 3.8748 51.7283 4.83937 52.1681 5.90098C52.6079 6.96259 52.8342 8.10044 52.8342 9.24954C52.8342 10.3986 52.6079 11.5365 52.1681 12.5981C51.7283 13.6597 51.0837 14.6243 50.271 15.4367C48.6293 17.0772 46.4033 17.9987 44.0825 17.9987C41.7616 17.9987 39.5357 17.0772 37.8939 15.4367C34.4771 12.02 34.4771 6.47911 37.8939 3.06234C38.7058 2.25016 39.6697 1.60586 40.7306 1.16621C41.7915 0.726558 42.9286 0.500181 44.0769 0.500002C45.2272 0.499204 46.3663 0.725182 47.4292 1.16501C48.492 1.60484 49.4577 2.24989 50.271 3.06326V3.06234ZM47.7951 5.54016C48.7792 6.52506 49.332 7.86043 49.332 9.25276C49.332 10.6451 48.7792 11.9805 47.7951 12.9654C46.8102 13.9495 45.4748 14.5023 44.0825 14.5023C42.6901 14.5023 41.3548 13.9495 40.3699 12.9654C39.3857 11.9805 38.8329 10.6451 38.8329 9.25276C38.8329 7.86043 39.3857 6.52506 40.3699 5.54016C41.3548 4.55601 42.6901 4.00318 44.0825 4.00318C45.4748 4.00318 46.8102 4.55601 47.7951 5.54016V5.54016ZM25.7133 0.500002C26.8618 0.500302 27.9989 0.726824 29.0598 1.16663C30.1207 1.60644 31.0846 2.25092 31.8964 3.06326C35.3141 6.47911 35.3141 12.0209 31.8964 15.4367C30.2546 17.0772 28.0287 17.9987 25.7078 17.9987C23.3869 17.9987 21.161 17.0772 19.5192 15.4367C16.1025 12.02 16.1025 6.47911 19.5192 3.06234C20.3311 2.25016 21.295 1.60586 22.3559 1.16621C23.4168 0.726558 24.5539 0.500181 25.7023 0.500002H25.7133ZM29.4204 5.53833C30.4049 6.52326 30.9579 7.85882 30.9579 9.25138C30.9579 10.6439 30.4049 11.9795 29.4204 12.9644C28.4355 13.9486 27.1002 14.5014 25.7078 14.5014C24.3155 14.5014 22.9801 13.9486 21.9952 12.9644C21.0111 11.9795 20.4582 10.6442 20.4582 9.25184C20.4582 7.85951 21.0111 6.52414 21.9952 5.53924C22.9801 4.55509 24.3155 4.00226 25.7078 4.00226C27.1002 4.00226 28.4355 4.55509 29.4204 5.53924V5.53833Z" fill="#2D8CFF"/>
</svg>
